# xmcd
#
# Track frame offsets: 
#        150
#        20914
#        46231
#        61237
#        82403
#        100106
#        117188
#        138533
#        159770
#        181825
#
# Disc length: 2666 seconds
#
# Revision: 1
# Processed by: cddbd v1.5.2PL0 Copyright (c) Steve Scherf et al.
# Submitted via: ExactAudioCopyFreeDBPlugin 1.0
#
DISCID=800a680a
DTITLE=Various Artist - Club Remix Vol. 4
DYEAR=1900
DGENRE=Greek
TTITLE0=Natasa Theodoridou - Pou Perpatas (Tellement N' Brick)
TTITLE1=Pasxalhs Terzhs - Dose Mou Mia Eykairia
TTITLE2=Elenh Tsaligopoulou - Mhn Perimenis Pia
TTITLE3=Lamphs Libieratos - Roda Einai
TTITLE4=Anna Bissh - Gi' Alla
TTITLE5=Antonhs Remos - Oso Zeis
TTITLE6=Omega Vibes Feat Glykeria - Diaspora
TTITLE7=Nikos Karbelas - Ekstash (Club Mix)
TTITLE8=Anna Bissh - Na Ton Agapas
TTITLE9=Foibos Delhborias - Enas Skylos Sto Kolonaki
EXTD=
EXTT0=
EXTT1=
EXTT2=
EXTT3=
EXTT4=
EXTT5=
EXTT6=
EXTT7=
EXTT8=
EXTT9=
PLAYORDER=
